<svg xmlns="http://www.w3.org/2000/svg" xmlns:xlink="http://www.w3.org/1999/xlink" viewBox="0 0 50 50" version="1.1">
<g id="surface1">
<path  fill="#ffffff" style=" " d="M 25 0 C 20.953125 0 17.648438 3.269531 17.625 7.3125 C 16.574219 7.875 15.625 8.546875 14.75 9.3125 L 10.84375 5.4375 L 10.15625 6.15625 C 8.765625 7.546875 8 9.375 8 11.34375 C 8 13.296875 8.753906 15.144531 10.125 16.53125 C 9.78125 17.671875 9.578125 18.832031 9.5 20 L 4 20 L 4 21 C 4 25.046875 7.269531 28.355469 11.3125 28.375 C 11.878906 29.429688 12.546875 30.375 13.3125 31.25 L 9.4375 35.125 L 10.15625 35.84375 C 11.546875 37.234375 13.40625 38 15.375 38 C 17.328125 38 19.144531 37.246094 20.53125 35.875 C 21.671875 36.21875 22.835938 36.421875 24 36.5 L 24 42 L 25 42 C 29.046875 42 32.355469 38.730469 32.375 34.6875 C 33.429688 34.125 34.371094 33.453125 35.25 32.6875 L 39.15625 36.5625 L 39.84375 35.84375 C 42.707031 32.984375 42.714844 28.339844 39.875 25.46875 C 40.21875 24.328125 40.421875 23.164063 40.5 22 L 46 22 L 46 21 C 46 16.953125 42.730469 13.644531 38.6875 13.625 C 38.121094 12.570313 37.453125 11.625 36.6875 10.75 L 40.5625 6.84375 L 39.84375 6.15625 C 38.453125 4.765625 36.625 4 34.65625 4 C 32.703125 4 30.855469 4.753906 29.46875 6.125 C 28.328125 5.78125 27.167969 5.578125 26 5.5 L 26 0 Z M 24.8125 12.0625 L 29.0625 12.0625 L 24.8125 19.0625 L 30.1875 19.0625 L 20.65625 31.0625 L 24.84375 21.9375 L 19.875 21.9375 Z M 8.25 42.21875 C 8.078125 42.25 7.914063 42.324219 7.78125 42.4375 C 6.429688 43.503906 4.199219 43.9375 2.84375 43.9375 C 2.214844 43.9375 1.675781 43.890625 1.15625 43.8125 C 0.789063 43.722656 0.40625 43.847656 0.160156 44.132813 C -0.0859375 44.417969 -0.148438 44.820313 -0.00390625 45.167969 C 0.140625 45.515625 0.46875 45.753906 0.84375 45.78125 C 1.433594 45.871094 2.09375 45.9375 2.84375 45.9375 C 4.394531 45.9375 6.546875 45.488281 8.375 44.3125 C 10.203125 45.5 12.378906 45.9375 13.9375 45.9375 C 15.484375 45.9375 17.644531 45.511719 19.46875 44.34375 C 21.292969 45.511719 23.453125 45.9375 25 45.9375 C 26.546875 45.9375 28.707031 45.511719 30.53125 44.34375 C 32.355469 45.511719 34.515625 45.9375 36.0625 45.9375 C 37.621094 45.9375 39.796875 45.5 41.625 44.3125 C 43.453125 45.488281 45.605469 45.9375 47.15625 45.9375 C 48.019531 45.9375 48.753906 45.800781 49.34375 45.59375 C 49.871094 45.402344 50.144531 44.824219 49.953125 44.296875 C 49.761719 43.769531 49.183594 43.496094 48.65625 43.6875 C 48.257813 43.824219 47.800781 43.9375 47.15625 43.9375 C 45.800781 43.9375 43.570313 43.503906 42.21875 42.4375 C 41.859375 42.160156 41.359375 42.160156 41 42.4375 C 39.648438 43.503906 37.417969 43.9375 36.0625 43.9375 C 34.707031 43.9375 32.511719 43.503906 31.15625 42.4375 C 30.789063 42.144531 30.273438 42.144531 29.90625 42.4375 C 28.550781 43.503906 26.355469 43.9375 25 43.9375 C 23.644531 43.9375 21.449219 43.503906 20.09375 42.4375 C 19.726563 42.144531 19.210938 42.144531 18.84375 42.4375 C 17.492188 43.503906 15.292969 43.9375 13.9375 43.9375 C 12.582031 43.9375 10.351563 43.503906 9 42.4375 C 8.8125 42.289063 8.582031 42.210938 8.34375 42.21875 C 8.3125 42.21875 8.28125 42.21875 8.25 42.21875 Z M 8.25 46.21875 C 8.078125 46.25 7.914063 46.324219 7.78125 46.4375 C 6.429688 47.503906 4.199219 47.9375 2.84375 47.9375 C 2.214844 47.9375 1.675781 47.890625 1.15625 47.8125 C 0.789063 47.722656 0.40625 47.847656 0.160156 48.132813 C -0.0859375 48.417969 -0.148438 48.820313 -0.00390625 49.167969 C 0.140625 49.515625 0.46875 49.753906 0.84375 49.78125 C 1.433594 49.871094 2.09375 49.9375 2.84375 49.9375 C 4.394531 49.9375 6.546875 49.488281 8.375 48.3125 C 10.203125 49.5 12.378906 49.9375 13.9375 49.9375 C 15.484375 49.9375 17.644531 49.511719 19.46875 48.34375 C 21.292969 49.511719 23.453125 49.9375 25 49.9375 C 26.546875 49.9375 28.707031 49.511719 30.53125 48.34375 C 32.355469 49.511719 34.515625 49.9375 36.0625 49.9375 C 37.621094 49.9375 39.796875 49.5 41.625 48.3125 C 43.453125 49.488281 45.605469 49.9375 47.15625 49.9375 C 48.019531 49.9375 48.753906 49.800781 49.34375 49.59375 C 49.871094 49.402344 50.144531 48.824219 49.953125 48.296875 C 49.761719 47.769531 49.183594 47.496094 48.65625 47.6875 C 48.257813 47.824219 47.800781 47.9375 47.15625 47.9375 C 45.800781 47.9375 43.570313 47.503906 42.21875 46.4375 C 41.859375 46.160156 41.359375 46.160156 41 46.4375 C 39.648438 47.503906 37.417969 47.9375 36.0625 47.9375 C 34.707031 47.9375 32.511719 47.503906 31.15625 46.4375 C 30.789063 46.144531 30.273438 46.144531 29.90625 46.4375 C 28.550781 47.503906 26.355469 47.9375 25 47.9375 C 23.644531 47.9375 21.449219 47.503906 20.09375 46.4375 C 19.726563 46.144531 19.210938 46.144531 18.84375 46.4375 C 17.492188 47.503906 15.292969 47.9375 13.9375 47.9375 C 12.582031 47.9375 10.351563 47.503906 9 46.4375 C 8.8125 46.289063 8.582031 46.210938 8.34375 46.21875 C 8.3125 46.21875 8.28125 46.21875 8.25 46.21875 Z "></path>
</g>
</svg>