<svg xmlns="http://www.w3.org/2000/svg">
    <symbol id="building-icon" viewBox="0 0 26.494 31">
        <path id="home" d="M43.753,15.374a.751.751,0,0,0-.751.751V29.5H34.948V21.1a.751.751,0,0,0-.751-.751h-5.88a.751.751,0,0,0-.751.751V27.76a.751.751,0,0,0,1.5,0V21.854h4.379V29.5H19.511V11.125L31.257,1.712,43.283,11.35a.751.751,0,1,0,.939-1.171L31.726.164a.75.75,0,0,0-.939,0l-12.5,10.015a.75.75,0,0,0-.281.586V30.249a.751.751,0,0,0,.751.751H43.753a.751.751,0,0,0,.751-.751V16.125A.751.751,0,0,0,43.753,15.374Z" transform="translate(-18.01 0.001)" fill="#fff"/>
    </symbol>
</svg>